<?xml version="1.0" standalone="no"?>
<!-- Generator: Adobe Fireworks 10, Export SVG Extension by Aaron Beall (http://fireworks.abeall.com) . Version: 0.6.0  -->
<!DOCTYPE svg PUBLIC "-//W3C//DTD SVG 1.1//EN" "http://www.w3.org/Graphics/SVG/1.1/DTD/svg11.dtd">
<svg id="" viewBox="0 0 14 16" style="background-color:#ffffff00" version="1.1"
	xmlns="http://www.w3.org/2000/svg" xmlns:xlink="http://www.w3.org/1999/xlink" xml:space="preserve"
	x="0px" y="0px" width="14px" height="16px"
>
	<g id="Layer%201">
		<path id="if_shopping-bag_171277" d="M 12 12 C 12 13.103 11.1025 14 10 14 L 4 14 C 2.897 14 2 13.103 2 12 L 2 7 L 3 7 L 3 8 C 3 8.552 3.448 9 4 9 C 4.552 9 5 8.552 5 8 L 5 7 L 9 7 L 9 8 C 9 8.552 9.448 9 10 9 C 10.552 9 11 8.552 11 8 L 11 7 L 12 7 L 12 12 L 12 12 ZM 5 4 C 5 2.8955 5.8955 2 7 2 C 8.1045 2 9 2.8955 9 4 L 9 5 L 5 5 L 5 4 L 5 4 ZM 13 5 L 11 5 L 11 4 C 11 1.791 9.209 0 7 0 C 4.791 0 3 1.791 3 4 L 3 5 L 1 5 C 0.45 5 0 5.45 0 6 L 0 12 C 0 14.2 1.8 16 4 16 L 10 16 C 12.2 16 14 14.2 14 12 L 14 6 C 14 5.45 13.55 5 13 5 L 13 5 Z" fill="#444444"/>
	</g>
</svg>